<?xml version="1.0" encoding="utf-8"?>
<!DOCTYPE svg PUBLIC "-//W3C//DTD SVG 1.1//EN" "http://www.w3.org/Graphics/SVG/1.1/DTD/svg11.dtd">
<svg version="1.1" id="Layer_1" xmlns="http://www.w3.org/2000/svg" xmlns:xlink="http://www.w3.org/1999/xlink" x="0px" y="0px"
	 width="128px" height="74px" viewBox="0 0 128 74" enable-background="new 0 0 128 74" xml:space="preserve">
<defs>
  <style>
    <![CDATA[
        @font-face {
            font-family: OpenSans-SemiBold;
            src: url('../../fonts/OpenSans-Semibold.ttf');
        }
    ]]>
  </style>
</defs>
<g>
	<rect fill="#FFFFFF" width="128" height="74"/>
</g>
<rect fill="#627278" width="5" height="74"/>
<g>
	<linearGradient id="SVGID_1_" gradientUnits="userSpaceOnUse" x1="66.5" y1="53.1396" x2="66.5" y2="39.2733">
		<stop  offset="0" style="stop-color:#DDDDDD"/>
		<stop  offset="1" style="stop-color:#FDFDFD"/>
	</linearGradient>
	<rect x="13" y="39" fill="url(#SVGID_1_)" width="107" height="14"/>
	<path fill="#999999" d="M120,39v13H14V39H120 M121,38H13v15h108V38L121,38z"/>
</g>
<g>
	<linearGradient id="SVGID_2_" gradientUnits="userSpaceOnUse" x1="66.5" y1="66.1299" x2="66.5" y2="53.254">
		<stop  offset="0" style="stop-color:#DDDDDD"/>
		<stop  offset="1" style="stop-color:#FDFDFD"/>
	</linearGradient>
	<rect x="13" y="53" fill="url(#SVGID_2_)" width="107" height="13"/>
	<path fill="#999999" d="M120,53v12H14V53H120 M121,52H13v14h108V52L121,52z"/>
</g>
<text transform="matrix(1 0 0 1 12.3506 16.1606)" font-family="'OpenSans-Semibold'" font-size="11" id="jqm_button_list_title">Button List</text>
<g>
	<linearGradient id="SVGID_3_" gradientUnits="userSpaceOnUse" x1="66.5" y1="39.1396" x2="66.5" y2="25.2738">
		<stop  offset="0" style="stop-color:#DDDDDD"/>
		<stop  offset="1" style="stop-color:#FDFDFD"/>
	</linearGradient>
	<rect x="13" y="25" fill="url(#SVGID_3_)" width="107" height="14"/>
	<path fill="#999999" d="M120,25v13H14V25H120 M121,24H13v15h108V24L121,24z"/>
</g>
</svg>
