<?xml version="1.0" encoding="utf-8"?>
<!DOCTYPE svg PUBLIC "-//W3C//DTD SVG 1.1//EN" "http://www.w3.org/Graphics/SVG/1.1/DTD/svg11.dtd">
<svg version="1.1" id="Layer_1" xmlns="http://www.w3.org/2000/svg" xmlns:xlink="http://www.w3.org/1999/xlink" x="0px" y="0px"
	 width="128px" height="52px" viewBox="0 0 128 52" enable-background="new 0 0 128 52" xml:space="preserve">
<defs>
  <style>
    <![CDATA[
        @font-face {
            font-family: OpenSans-SemiBold;
            src: url('../../fonts/OpenSans-Semibold.ttf');
        }
    ]]>
  </style>
</defs>
<g>
	<rect fill="#FFFFFF" width="128" height="52"/>
</g>
<rect fill="#627278" width="5" height="52"/>
<text transform="matrix(1 0 0 1 12 15.4263)" font-family="'OpenSans-Semibold'" font-size="11" id="jqm_slider_title">Slider</text>
<path fill="#698A97" stroke="#435961" stroke-miterlimit="10" d="M119.5,33.5c0,2.209-1.791,4-4,4h-70c-2.209,0-4-1.791-4-4l0,0
	c0-2.209,1.791-4,4-4h70C117.709,29.5,119.5,31.291,119.5,33.5L119.5,33.5z"/>
<linearGradient id="SVGID_1_" gradientUnits="userSpaceOnUse" x1="61.0005" y1="42.1797" x2="61.0005" y2="24.352">
	<stop  offset="0" style="stop-color:#DDDDDD"/>
	<stop  offset="1" style="stop-color:#FDFDFD"/>
</linearGradient>
<circle fill="url(#SVGID_1_)" stroke="#435961" stroke-miterlimit="10" cx="61" cy="33" r="9"/>
<g>
	<path fill="#969696" d="M33,24v18H14V24H33 M34,23H13v20h21V23L34,23z"/>
</g>
<g>
	<path fill="#E8E8E8" d="M32,25v16H15V25H32 M33,24H14v18h19V24L33,24z"/>
</g>
<g>
	<rect x="15" y="25" fill="#FFFFFF" width="18" height="17"/>
</g>
<text transform="matrix(1 0 0 1 17 37.4258)" fill="#808285" font-family="'OpenSans-Semibold'" font-size="11" id="jqm_slider_amount_text">10</text>
</svg>
