<?xml version="1.0" encoding="utf-8"?>
<!DOCTYPE svg PUBLIC "-//W3C//DTD SVG 1.1//EN" "http://www.w3.org/Graphics/SVG/1.1/DTD/svg11.dtd">
<svg version="1.1" id="Layer_1" xmlns="http://www.w3.org/2000/svg" xmlns:xlink="http://www.w3.org/1999/xlink" x="0px" y="0px"
	 width="128px" height="40px" viewBox="0 0 128 40" enable-background="new 0 0 128 40" xml:space="preserve">
<defs>
  <style>
    <![CDATA[
        @font-face {
            font-family: OpenSans-SemiBold;
            src: url('../../fonts/OpenSans-Semibold.ttf');
        }
    ]]>
  </style>
</defs>
<g>
	<rect fill="#FFFFFF" width="128" height="40"/>
</g>
<rect fill="#627278" width="5" height="40"/>
<g>
	<linearGradient id="SVGID_1_" gradientUnits="userSpaceOnUse" x1="66.5" y1="31.21" x2="66.5" y2="10.4109">
		<stop  offset="0" style="stop-color:#DDDDDD"/>
		<stop  offset="1" style="stop-color:#FDFDFD"/>
	</linearGradient>
	<path fill="url(#SVGID_1_)" d="M20.062,31C15.893,31,12,27.136,12,23v-6c0-4.136,3.893-7,8.062-7h93.875
		c4.17,0,7.062,2.864,7.062,7v6c0,4.136-2.893,8-7.062,8H20.062z"/>
	<path fill="#999999" d="M113.969,10c3.895,0,7.031,3.14,7.031,7v6c0,3.859-3.168,7-7.062,7H20.062C16.168,30,13,26.859,13,23v-6
		c0-3.86,3.168-7,7.062-7H114 M113.938,9H20.062C15.609,9,12,12.582,12,17v6c0,4.418,3.609,8,8.062,8h93.875
		c4.453,0,8.062-3.582,8.062-8v-6C122,12.582,118.391,9,113.938,9L113.938,9z"/>
</g>
<text text-anchor="middle" transform="translate(66.5, 24)" font-family="'OpenSans-Semibold'" font-size="11" id="jqm_button_title">Button</text>
</svg>
