<?xml version="1.0" encoding="utf-8"?>
<!DOCTYPE svg PUBLIC "-//W3C//DTD SVG 1.1//EN" "http://www.w3.org/Graphics/SVG/1.1/DTD/svg11.dtd">
<svg version="1.1" id="Layer_1" xmlns="http://www.w3.org/2000/svg" xmlns:xlink="http://www.w3.org/1999/xlink" x="0px" y="0px"
	 width="128px" height="35px" viewBox="0 0 128 35" enable-background="new 0 0 128 35" xml:space="preserve">
<defs>
  <style>
    <![CDATA[
        @font-face {
            font-family: OpenSans-SemiBold;
            src: url('../../fonts/OpenSans-Semibold.ttf');
        }
    ]]>
  </style>
</defs>
<g>
	<rect fill="#FFFFFF" width="128" height="35"/>
</g>
<rect fill="#627278" width="5" height="35"/>
<g>
	<polygon fill="#C9D7DB" points="122,30 13,30 13,5 122,5 	"/>
</g>
<text text-anchor="middle" transform="translate(66.5, 21.5)" font-family="'OpenSans-Semibold'" font-size="11" id="jqm_header_title">Header</text>
<g>
	<path fill="#9AACB3" d="M24.879,26C20.527,26,17,22.418,17,18c0,-4.418,3.527,-8,7.879,-8h11.242c4.353,0,7.879,3.582,7.879,8,0,4.418,-3.526,8,-7.879,8
		H24.879z"/>
</g>
<g>
	<path fill="#9AACB3" d="M98.879,26C94.527,26,91,22.418,91,18c0,-4.418,3.527,-8,7.879,-8l11.242,0c4.353,0,7.879,3.582,7.879,8,0,4.418,-3.526,8,-7.879,8z"/>
</g>
</svg>
