<?xml version="1.0" encoding="utf-8"?>
<!DOCTYPE svg PUBLIC "-//W3C//DTD SVG 1.1//EN" "http://www.w3.org/Graphics/SVG/1.1/DTD/svg11.dtd">
<svg version="1.1" id="Layer_1" xmlns="http://www.w3.org/2000/svg" xmlns:xlink="http://www.w3.org/1999/xlink" x="0px" y="0px"
	 width="128px" height="36px" viewBox="0 0 128 36" enable-background="new 0 0 128 36" xml:space="preserve">
<defs>
  <style>
    <![CDATA[
        @font-face {
            font-family: OpenSans-SemiBold;
            src: url('../../fonts/OpenSans-Semibold.ttf');
        }
    ]]>
  </style>
</defs>
<g>
	<rect fill="#FFFFFF" width="128" height="36"/>
</g>
<rect fill="#627278" width="5" height="36"/>
<text transform="matrix(1 0 0 1 41 22.4258)" font-family="'OpenSans-Semibold'" font-size="11" id="tizen_person_picker_title">Person Picker</text>
<path fill="#C7D2D6" d="M30.323,22.983c-1.329-0.615-3.26-2.198-6.18-2.742c0.746-0.831,1.331-2.131,1.913-3.672
	c0.336-0.893,0.289-1.653,0.289-2.735c0-0.801,0.149-2.086-0.042-2.791C25.66,8.658,24.034,8,22.127,8
	c-1.906,0-3.534,0.662-4.176,3.05c-0.189,0.704-0.044,1.986-0.044,2.784c0,1.085-0.056,1.85,0.281,2.743
	c0.586,1.547,1.145,2.846,1.887,3.673c-2.896,0.556-4.93,2.126-6.252,2.737C11.093,24.256,11,25.643,11,25.643V28h22v-2.357
	C33,25.643,33.065,24.252,30.323,22.983z"/>
</svg>
