<?xml version="1.0" encoding="utf-8"?>
<!DOCTYPE svg PUBLIC "-//W3C//DTD SVG 1.1//EN" "http://www.w3.org/Graphics/SVG/1.1/DTD/svg11.dtd">
<svg version="1.1" id="Layer_1" xmlns="http://www.w3.org/2000/svg" xmlns:xlink="http://www.w3.org/1999/xlink" x="0px" y="0px"
	 width="128px" height="57px" viewBox="0 0 128 57" enable-background="new 0 0 128 57" xml:space="preserve">
<defs>
  <style>
    <![CDATA[
        @font-face {
            font-family: OpenSans-SemiBold;
            src: url('../../fonts/OpenSans-Semibold.ttf');
        }
    ]]>
  </style>
</defs>
<g>
	<rect fill="#FFFFFF" width="128" height="57"/>
</g>
<rect fill="#627278" width="5" height="57"/>
<g>
	<rect x="13" y="24" fill="#C9D7DB" width="62" height="25"/>
</g>
<text transform="matrix(1 0 0 1 12 15.4263)" font-family="'OpenSans-Semibold'" font-size="11" id="tizen_swipe_list_title">Swipe List</text>
<g>
	<path fill="#9AACB3" d="M47.879,45C43.527,45,40,41.418,40,37s3.527-8,7.879-8h15.242C67.474,29,71,32.582,71,37s-3.526,8-7.879,8
		H47.879z"/>
</g>
<g>
	<path fill="#9AACB3" d="M28.242,29c4.352,0,7.879,3.582,7.879,8s-3.527,8-7.879,8H13V29H28.242z"/>
</g>
<g>
	<rect x="95" y="24" fill="#C9D7DB" width="26" height="25"/>
</g>
<g>
	<path fill="#9AACB3" d="M105.879,45C101.527,45,98,41.418,98,37s3.527-8,7.879-8H121v16H105.879z"/>
</g>
<polygon fill="#D1D3D4" points="83,41.82 78.59,37.409 83,33 83,36 86,36 86,39.134 83,39.122 "/>
<polygon fill="#D1D3D4" points="87,36 88,36 88,39 87,38.988 "/>
<polygon fill="#D1D3D4" points="89,36 89.542,36 89.542,39 89,38.988 "/>
</svg>
