<?xml version="1.0" encoding="utf-8"?>
<!DOCTYPE svg PUBLIC "-//W3C//DTD SVG 1.1//EN" "http://www.w3.org/Graphics/SVG/1.1/DTD/svg11.dtd">
<svg version="1.1" id="Layer_1" xmlns="http://www.w3.org/2000/svg" xmlns:xlink="http://www.w3.org/1999/xlink" x="0px" y="0px"
	 width="128px" height="60px" viewBox="0 0 128 60" enable-background="new 0 0 128 60" xml:space="preserve">
<defs>
  <style>
    <![CDATA[
        @font-face {
            font-family: OpenSans-SemiBold;
            src: url('../../fonts/OpenSans-Semibold.ttf');
        }
    ]]>
  </style>
</defs>
<g>
	<rect y="14" fill="#FFFFFF" width="127" height="46"/>
	<path fill="#698A97" d="M127,14v45H1V14H127 M128,13H0v47h128V13L128,13z"/>
</g>
<path fill="#C7D2D6" d="M30.406,45.749c-1.329-0.615-3.219-2.198-6.139-2.742c0.747-0.831,1.351-2.131,1.933-3.672
	c0.336-0.893,0.3-1.653,0.3-2.735c0-0.801,0.153-2.086-0.038-2.791c-0.643-2.385-2.264-3.043-4.171-3.043
	c-1.906,0-3.534,0.662-4.176,3.05c-0.189,0.704-0.042,1.986-0.042,2.784c0,1.085-0.057,1.85,0.28,2.743
	c0.586,1.547,1.146,2.846,1.888,3.673c-2.896,0.556-5.013,2.126-6.335,2.737C11.176,47.021,11,48.408,11,48.408V51h22v-2.592
	C33,48.408,33.148,47.018,30.406,45.749z"/>
<g>
	<rect fill="#698A97" width="128" height="20"/>
</g>
<path fill="#C7D2D6" d="M58.406,45.749c-1.329-0.615-3.219-2.198-6.139-2.742c0.747-0.831,1.351-2.131,1.933-3.672
	c0.336-0.893,0.3-1.653,0.3-2.735c0-0.801,0.153-2.086-0.038-2.791c-0.643-2.385-2.264-3.043-4.171-3.043
	c-1.906,0-3.534,0.662-4.176,3.05c-0.189,0.704-0.042,1.986-0.042,2.784c0,1.085-0.057,1.85,0.28,2.743
	c0.586,1.547,1.146,2.846,1.888,3.673c-2.896,0.556-5.013,2.126-6.335,2.737C39.176,47.021,39,48.408,39,48.408V51h22v-2.592
	C61,48.408,61.148,47.018,58.406,45.749z"/>
<path fill="#C7D2D6" d="M86.406,45.749c-1.329-0.615-3.219-2.198-6.139-2.742c0.746-0.831,1.351-2.131,1.933-3.672
	c0.336-0.893,0.3-1.653,0.3-2.735c0-0.801,0.154-2.086-0.037-2.791c-0.643-2.385-2.265-3.043-4.172-3.043
	c-1.906,0-3.533,0.662-4.176,3.05c-0.189,0.704-0.043,1.986-0.043,2.784c0,1.085-0.057,1.85,0.28,2.743
	c0.586,1.547,1.146,2.846,1.888,3.673c-2.896,0.556-5.013,2.126-6.335,2.737C67.176,47.021,67,48.408,67,48.408V51h22v-2.592
	C89,48.408,89.148,47.018,86.406,45.749z"/>
<path fill="#C7D2D6" d="M114.406,45.499c-1.329-0.615-3.219-2.198-6.139-2.742c0.746-0.831,1.351-2.131,1.933-3.672
	c0.336-0.893,0.3-1.653,0.3-2.735c0-0.801,0.154-2.086-0.037-2.791c-0.643-2.385-2.265-3.043-4.172-3.043
	c-1.906,0-3.533,0.662-4.176,3.05c-0.189,0.704-0.043,1.986-0.043,2.784c0,1.085-0.057,1.85,0.28,2.743
	c0.586,1.547,1.146,2.846,1.888,3.673c-2.896,0.556-5.013,2.126-6.335,2.737C95.176,46.771,95,48.158,95,48.158V51h22v-2.842
	C117,48.158,117.148,46.768,114.406,45.499z"/>
<text transform="matrix(1 0 0 1 13 14.4263)" fill="#FFFFFF" font-family="'OpenSans-Semibold'" font-size="11" id="tizen_person_picker_page_title">Person Picker Page</text>
</svg>
