<?xml version="1.0" encoding="utf-8"?>
<!DOCTYPE svg PUBLIC "-//W3C//DTD SVG 1.1//EN" "http://www.w3.org/Graphics/SVG/1.1/DTD/svg11.dtd">
<svg version="1.1" id="Layer_1" xmlns="http://www.w3.org/2000/svg" xmlns:xlink="http://www.w3.org/1999/xlink" x="0px" y="0px"
	 width="128px" height="57px" viewBox="0 0 128 57" enable-background="new 0 0 128 57" xml:space="preserve">
<defs>
  <style>
    <![CDATA[
        @font-face {
            font-family: OpenSans-SemiBold;
            src: url('../../fonts/OpenSans-Semibold.ttf');
        }
    ]]>
  </style>
</defs>
<g>
	<rect fill="#FFFFFF" width="128" height="57"/>
</g>
<rect fill="#627278" width="5" height="57"/>
<g>
	<polygon fill="#C9D7DB" points="122,49 13,49 13,24 47.912,24 51.928,21 55.943,24 122,24 	"/>
</g>
<text transform="matrix(1 0 0 1 13 15.4263)" font-family="'OpenSans-Semibold'" font-size="11" id="tizen_option_header_title">Option Header</text>
<g>
	<path fill="#9AACB3" d="M24.879,45C20.527,45,17,41.418,17,37s3.527-8,7.879-8h15.242C44.474,29,48,32.582,48,37s-3.526,8-7.879,8
		H24.879z"/>
</g>
<g>
	<path fill="#9AACB3" d="M59.879,45C55.527,45,52,41.418,52,37s3.527-8,7.879-8h15.242C79.474,29,83,32.582,83,37s-3.526,8-7.879,8
		H59.879z"/>
</g>
<g>
	<path fill="#9AACB3" d="M94.879,45C90.527,45,87,41.418,87,37s3.527-8,7.879-8h15.242c4.353,0,7.879,3.582,7.879,8
		s-3.526,8-7.879,8H94.879z"/>
</g>
</svg>
