<?xml version="1.0" encoding="utf-8"?>
<!DOCTYPE svg PUBLIC "-//W3C//DTD SVG 1.1//EN" "http://www.w3.org/Graphics/SVG/1.1/DTD/svg11.dtd">
<svg version="1.1" id="Layer_1" xmlns="http://www.w3.org/2000/svg" xmlns:xlink="http://www.w3.org/1999/xlink" x="0px" y="0px"
	 width="128px" height="34px" viewBox="0 0 128 34" enable-background="new 0 0 128 34" xml:space="preserve">
<defs>
  <style>
    <![CDATA[
        @font-face {
            font-family: OpenSans-SemiBold;
            src: url('../../fonts/OpenSans-Semibold.ttf');
        }
    ]]>
  </style>
</defs>
<g>
	<rect fill="#FFFFFF" width="128" height="34"/>
</g>
<rect fill="#627278" width="5" height="34"/>
<text transform="matrix(1 0 0 1 36 20.4258)" font-family="'OpenSans-Semibold'" font-size="11" id="tizen_volume_control_title">Volume Control</text>
<g>
	<polygon fill="#6C838C" points="15,14 12,14 12,20 14.858,20 20,25 20,9 15,14.337 	"/>
	<path fill="#6C838C" d="M22.028,13.633L21,15.212v0.038c1,0.41,0.837,1.027,0.837,1.729c0,0.699,0.163,1.316-0.837,1.727v0.006
		l1.04,1.604c1.084-0.718,1.801-1.943,1.801-3.336C23.841,15.578,23.12,14.35,22.028,13.633z"/>
	<path fill="#6C838C" d="M28.156,16.979c0-2.977-1.788-5.567-4.216-6.934L23,11.603v0.037c2,1.075,3.087,3.062,3.087,5.339
		c0,2.275-1.087,4.263-3.087,5.338v0.004l0.954,1.583C26.376,22.535,28.156,19.949,28.156,16.979z"/>
</g>
</svg>
