<?xml version="1.0" encoding="utf-8"?>
<!DOCTYPE svg PUBLIC "-//W3C//DTD SVG 1.1//EN" "http://www.w3.org/Graphics/SVG/1.1/DTD/svg11.dtd">
<svg version="1.1" id="Layer_1" xmlns="http://www.w3.org/2000/svg" xmlns:xlink="http://www.w3.org/1999/xlink" x="0px" y="0px"
	 width="128px" height="43px" viewBox="0 0 128 43" enable-background="new 0 0 128 43" xml:space="preserve">
<defs>
  <style>
    <![CDATA[
        @font-face {
            font-family: OpenSans-SemiBold;
            src: url('../../fonts/OpenSans-Semibold.ttf');
        }
    ]]>
  </style>
</defs>
<g>
	<rect fill="#FFFFFF" width="128" height="43"/>
</g>
<rect fill="#627278" width="5" height="43"/>
<text transform="matrix(1 0 0 1 12 15.4263)" font-family="'OpenSans-Semibold'" font-size="11" id="tizen_progress_bar_title">Progress Bar</text>
<path fill="#698A97" stroke="#435961" stroke-miterlimit="10" d="M119.5,29.029c0,2.469-2.002,4.471-4.471,4.471H16.971
	c-2.469,0-4.471-2.002-4.471-4.471v-0.059c0-2.469,2.001-4.471,4.471-4.471h98.059c2.469,0,4.471,2.002,4.471,4.471V29.029z"/>
<linearGradient id="SVGID_1_" gradientUnits="userSpaceOnUse" x1="47.0005" y1="32.75" x2="47.0005" y2="25.3491">
	<stop  offset="0" style="stop-color:#DDDDDD"/>
	<stop  offset="1" style="stop-color:#FDFDFD"/>
</linearGradient>
<path fill="url(#SVGID_1_)" d="M81,29c0,2.209-1.791,4-4,4H17c-2.209,0-4-1.791-4-4l0,0c0-2.209,1.791-4,4-4h60
	C79.209,25,81,26.791,81,29L81,29z"/>
</svg>
